<svg id="Layer_1" enable-background="new 0 0 512 512" height="512" viewBox="0 0 512 512" width="512" xmlns="http://www.w3.org/2000/svg"><g><path d="m328 216h-144c-13.233 0-24 10.766-24 24s10.767 24 24 24h144c13.233 0 24-10.766 24-24s-10.767-24-24-24z"/><path d="m250.94 104.821c1.642-.548 3.351-.821 5.06-.821s3.418.273 5.06.821l44.359 14.786c3.238 1.079 6.581-1.331 6.581-4.743v-109.864c0-2.761-2.239-5-5-5h-102c-2.761 0-5 2.239-5 5v109.864c0 3.413 3.343 5.823 6.581 4.743z"/><path d="m466 0h-117c-2.761 0-5 2.239-5 5v138.632c0 4.055-1.371 8.047-4.089 11.057-3.144 3.483-7.496 5.311-11.912 5.311-1.698 0-3.406-.27-5.059-.821l-65.359-21.786c-1.026-.342-2.136-.342-3.162 0l-65.359 21.786c-6.094 2.032-12.944.25-17.285-4.849-2.523-2.963-3.774-6.806-3.774-10.697l-.001-138.633c0-2.761-2.239-5-5-5h-117c-25.405 0-46 20.595-46 46v420c0 25.405 20.595 46 46 46h420c25.405 0 46-20.595 46-46v-420c0-25.405-20.595-46-46-46zm-138 296h-144c-30.879 0-56-25.122-56-56s25.121-56 56-56h144c30.879 0 56 25.122 56 56s-25.121 56-56 56z"/></g></svg>